<svg width="120" height="120" viewBox="0 0 120 120" fill="none" xmlns="http://www.w3.org/2000/svg">
<path d="M69.8456 91.4269C67.8188 90.262 66.3058 88.3712 65.6402 86.1321H20.6928H20.5894V39.7353H96.2286V49.2808H99.4966C101.904 49.2808 104.095 50.2392 105.737 51.785C106.115 52.15 106.473 52.5387 106.783 52.9716V52.9314C106.794 52.9456 106.807 52.9583 106.818 52.9716V17.9663C106.818 16.877 105.941 16 104.852 16H11.9663C10.8779 16 10 16.877 10 17.9663V94.7402C10 95.8295 10.8779 96.7215 11.9663 96.7215H70.0127C69.4228 95.012 69.3766 93.1667 69.8456 91.4269ZM90.6319 23.6085C93.3241 23.6085 95.5179 25.802 95.5179 28.4953C95.5179 31.2036 93.3241 33.3965 90.6319 33.3965C87.9236 33.3965 85.7299 31.2036 85.7299 28.4953C85.7299 25.8022 87.9236 23.6085 90.6319 23.6085ZM76.6385 23.6085C79.346 23.6085 81.5395 25.802 81.5395 28.4953C81.5395 31.2036 79.346 33.3965 76.6385 33.3965C73.9302 33.3965 71.7525 31.2036 71.7525 28.4953C71.7525 25.8022 73.9302 23.6085 76.6385 23.6085ZM62.6451 23.6085C65.3534 23.6085 67.5461 25.802 67.5461 28.4953C67.5461 31.2036 65.3534 33.3965 62.6451 33.3965C59.952 33.3965 57.7591 31.2036 57.7591 28.4953C57.7591 25.8022 59.952 23.6085 62.6451 23.6085Z" fill="white"/>
<path d="M118.532 75.7701L113.752 75.4822C113.358 74.1512 112.83 72.8654 112.178 71.6855L115.341 68.0842C115.9 67.4642 115.87 66.5266 115.28 65.9517L110.908 61.5642C110.832 61.4885 110.742 61.4282 110.651 61.3678C110.485 61.2621 110.288 61.1865 110.091 61.1562C110.031 61.1411 109.955 61.1261 109.895 61.1261C109.864 61.1261 109.819 61.1111 109.788 61.1111C109.622 61.1111 109.456 61.1414 109.305 61.1865C109.108 61.2462 108.926 61.3528 108.76 61.5038L105.81 64.1212L105.175 64.6803C103.979 64.0147 102.694 63.4862 101.363 63.0926L101.075 58.3123C101.015 57.4948 100.333 56.8445 99.5018 56.8445H93.314C92.4824 56.8445 91.802 57.4948 91.7564 58.3123L91.4535 63.0926C90.1225 63.4862 88.8517 64.0149 87.6568 64.6803L84.0717 61.5038C83.9198 61.3678 83.7535 61.2621 83.5724 61.2009C83.2542 61.0801 82.9068 61.0649 82.5736 61.1708C82.4376 61.2009 82.2865 61.2774 82.1649 61.368C82.0743 61.4286 81.9986 61.4888 81.9232 61.5644L77.5357 65.9519C76.9457 66.5268 76.9305 67.4642 77.4751 68.0845L80.6524 71.6857C79.9869 72.8656 79.4575 74.1514 79.0789 75.4824L74.2836 75.7703C73.467 75.8307 72.8158 76.5113 72.8158 77.3429V83.5307C72.8158 84.3623 73.467 85.0438 74.2836 85.1035L79.0789 85.3912C79.1545 85.6482 79.23 85.8907 79.3206 86.1324C79.6691 87.2066 80.1078 88.2355 80.6524 89.1879L77.4751 92.7883C76.9305 93.4083 76.9455 94.3467 77.5357 94.9367L79.3206 96.7216L81.9232 99.309C82.0743 99.46 82.2562 99.5657 82.4376 99.6566C82.6189 99.732 82.8153 99.7632 83.0125 99.7632H83.0275C83.1182 99.7632 83.2086 99.7473 83.2995 99.7473C83.3902 99.717 83.4806 99.7019 83.5724 99.6716C83.7535 99.5962 83.9198 99.5056 84.0717 99.3696L87.067 96.7216L87.657 96.192C88.0046 96.3893 88.3527 96.5555 88.7003 96.7216C89.5781 97.1455 90.5011 97.4938 91.4537 97.7808L91.7566 102.561C91.802 103.379 92.4824 104.029 93.3143 104.029H99.502C100.334 104.029 101.015 103.379 101.076 102.561L101.363 97.7808C102.346 97.494 103.315 97.1152 104.237 96.6765C104.237 96.6765 104.252 96.6765 104.267 96.6615C104.57 96.5104 104.872 96.3594 105.175 96.1923L108.76 99.3698C108.927 99.5208 109.108 99.6265 109.305 99.6869C109.456 99.7322 109.622 99.7634 109.788 99.7634C109.985 99.7634 110.197 99.7322 110.378 99.6568C110.575 99.5662 110.757 99.4605 110.908 99.3092L115.28 94.9369C115.87 94.347 115.9 93.4085 115.341 92.7885L112.178 89.1881C112.83 88.0082 113.358 86.7226 113.752 85.3914L118.532 85.1037C119.365 85.044 120 84.3625 120 83.5309V77.3432C120 76.5111 119.365 75.8304 118.532 75.7701ZM100.639 83.3115C100.568 83.4155 100.495 83.5163 100.417 83.6144C100.208 83.8778 99.9733 84.1213 99.7164 84.3385C99.6343 84.4083 99.5494 84.4745 99.4631 84.5391C99.1919 84.7407 98.9015 84.916 98.5936 85.0621C98.4879 85.1123 98.3805 85.157 98.2722 85.1998C97.9615 85.3205 97.6384 85.4123 97.3028 85.4718C97.1795 85.4928 97.0562 85.5087 96.9311 85.522C96.7608 85.5388 96.5904 85.5573 96.416 85.5573C96.0224 85.5573 95.6288 85.5122 95.221 85.4213C94.5395 85.2702 93.8589 84.9826 93.1783 84.5434C92.8309 84.3318 92.5127 84.0147 92.3013 83.6815C92.1191 83.4095 91.9831 83.1368 91.8471 82.8649C91.7263 82.592 91.6206 82.3202 91.5291 82.0474C90.6066 78.9616 92.4824 76.1173 95.2208 75.4669C95.5985 75.3612 96.0071 75.3159 96.4157 75.3159C97.444 75.3159 98.5483 75.618 99.6526 76.3289C99.9858 76.5411 100.303 76.8432 100.515 77.1915C101.949 79.4157 101.742 81.6933 100.639 83.3115Z" fill="white"/>
</svg>
